<?xml version="1.0" encoding="UTF-8" standalone="no"?>
<!-- Created with Inkscape (http://www.inkscape.org/) -->

<svg
   width="93.328117mm"
   height="66.882393mm"
   viewBox="0 0 93.328117 66.882393"
   version="1.1"
   id="svg5"
   inkscape:version="1.1 (c4e8f9e, 2021-05-24)"
   sodipodi:docname="logo.svg"
   xmlns:inkscape="http://www.inkscape.org/namespaces/inkscape"
   xmlns:sodipodi="http://sodipodi.sourceforge.net/DTD/sodipodi-0.dtd"
   xmlns="http://www.w3.org/2000/svg"
   xmlns:svg="http://www.w3.org/2000/svg">
  <sodipodi:namedview
     id="namedview7"
     pagecolor="#ffffff"
     bordercolor="#666666"
     borderopacity="1.0"
     inkscape:pageshadow="2"
     inkscape:pageopacity="0.0"
     inkscape:pagecheckerboard="0"
     inkscape:document-units="mm"
     showgrid="false"
     fit-margin-top="0"
     fit-margin-left="0"
     fit-margin-right="0"
     fit-margin-bottom="-6"
     inkscape:zoom="0.51313131"
     inkscape:cx="309.8622"
     inkscape:cy="454.0748"
     inkscape:window-width="1312"
     inkscape:window-height="798"
     inkscape:window-x="0"
     inkscape:window-y="25"
     inkscape:window-maximized="0"
     inkscape:current-layer="layer1" />
  <defs
     id="defs2">
    <filter
       inkscape:collect="always"
       style="color-interpolation-filters:sRGB"
       id="filter5008"
       x="-0.12218826"
       y="-0.12543218"
       width="1.2443765"
       height="1.2508644">
      <feGaussianBlur
         inkscape:collect="always"
         stdDeviation="2.8368268"
         id="feGaussianBlur5010" />
    </filter>
  </defs>
  <g
     inkscape:label="Layer 1"
     inkscape:groupmode="layer"
     id="layer1"
     transform="translate(-23.203125,-28.202015)">
    <rect
       style="fill:#000000;stroke-width:2.83348;paint-order:stroke fill markers"
       id="rect31"
       width="93.328117"
       height="67.031242"
       x="23.203125"
       y="28.359375" />
    <text
       xml:space="preserve"
       style="font-style:italic;font-variant:normal;font-weight:600;font-stretch:normal;font-size:16.1266px;line-height:1.25;font-family:'Avenir Next';-inkscape-font-specification:'Avenir Next, Semi-Bold Italic';font-variant-ligatures:normal;font-variant-caps:normal;font-variant-numeric:normal;font-variant-east-asian:normal;fill:#ffffff;fill-opacity:1;stroke:none;stroke-width:0.403167"
       x="38.690689"
       y="80.270172"
       id="text2311"
       transform="scale(0.89845161,1.113026)"><tspan
         sodipodi:role="line"
         id="tspan6156"
         x="38.690689"
         y="80.270172">Ezer    Lab</tspan></text>
    <g
       id="g3708"
       style="stroke:#d6fd9c;stroke-width:1;stroke-miterlimit:4;stroke-dasharray:none;stroke-opacity:1"
       transform="matrix(0.80525576,0,0,0.69337819,-8.283907,-35.917804)">
      <g
         id="g3556"
         style="stroke:#d6fd9c;stroke-width:1;stroke-miterlimit:4;stroke-dasharray:none;stroke-opacity:1">
        <path
           style="fill:none;stroke:#d6fd9c;stroke-width:1;stroke-linecap:butt;stroke-linejoin:miter;stroke-miterlimit:4;stroke-dasharray:none;stroke-opacity:1"
           d="m 63.902368,149.01377 c 0,0 17.202303,-25.2181 34.776143,-4.28997 -3.992341,26.54994 -28.895824,-2.53614 -34.776143,4.28997 z"
           id="path3188"
           sodipodi:nodetypes="ccc" />
        <path
           style="fill:none;stroke:#d6fd9c;stroke-width:1;stroke-linecap:butt;stroke-linejoin:miter;stroke-miterlimit:4;stroke-dasharray:none;stroke-opacity:1"
           d="m 98.678509,144.7238 c 0,0 -14.080878,-6.01882 -24.42851,-0.86443 -10.347632,5.1544 -10.347632,5.1544 -10.347632,5.1544"
           id="path3470" />
      </g>
      <path
         style="fill:none;stroke:#d6fd9c;stroke-width:1;stroke-linecap:butt;stroke-linejoin:miter;stroke-miterlimit:4;stroke-dasharray:none;stroke-opacity:1"
         d="m 98.678509,144.7238 c 2.056491,15.36589 2.131921,25.55011 -5.671874,38.15625"
         id="path3472"
         sodipodi:nodetypes="cc" />
      <g
         id="g3562"
         transform="matrix(-1.0169185,0,0,0.99989077,199.30717,0.01597723)"
         style="stroke:#d6fd9c;stroke-width:0.991701;stroke-miterlimit:4;stroke-dasharray:none;stroke-opacity:1">
        <path
           style="fill:none;stroke:#d6fd9c;stroke-width:0.991701;stroke-linecap:butt;stroke-linejoin:miter;stroke-miterlimit:4;stroke-dasharray:none;stroke-opacity:1"
           d="m 63.902368,149.01377 c 0,0 17.202303,-25.2181 34.776143,-4.28997 -3.992341,26.54994 -28.895824,-2.53614 -34.776143,4.28997 z"
           id="path3558"
           sodipodi:nodetypes="ccc" />
        <path
           style="fill:none;stroke:#d6fd9c;stroke-width:0.991701;stroke-linecap:butt;stroke-linejoin:miter;stroke-miterlimit:4;stroke-dasharray:none;stroke-opacity:1"
           d="m 98.678509,144.7238 c 0,0 -14.080878,-6.01882 -24.42851,-0.86443 -10.347632,5.1544 -10.347632,5.1544 -10.347632,5.1544"
           id="path3560" />
      </g>
    </g>
    <ellipse
       style="opacity:0.89;mix-blend-mode:lighten;fill:none;fill-opacity:1;stroke:#d6fdf6;stroke-width:1;stroke-miterlimit:4;stroke-dasharray:none;stroke-opacity:0;paint-order:stroke fill markers;filter:url(#filter5008)"
       id="path4969"
       cx="68.578125"
       cy="64.643211"
       rx="29.906246"
       ry="29.132812" />
    <g
       id="g6028"
       style="stroke:#e6cdfa;stroke-width:1;stroke-miterlimit:4;stroke-dasharray:none;stroke-opacity:1"
       transform="matrix(0.7610867,0,0,1.0007363,14.337528,-127.9999)">
      <path
         style="fill:none;stroke:#e6cdfa;stroke-width:1;stroke-linecap:butt;stroke-linejoin:miter;stroke-miterlimit:4;stroke-dasharray:none;stroke-opacity:1"
         d="m 13.921875,170.15625 c 0,0 18.046874,-22.6875 30.421876,-0.51563 12.374999,22.17188 28.874997,-0.51562 28.874997,-0.51562 0,0 10.828127,-18.5625 26.812502,-0.51563"
         id="path5911"
         sodipodi:nodetypes="cscc" />
      <path
         style="fill:none;stroke:#e6cdfa;stroke-width:1;stroke-linecap:butt;stroke-linejoin:miter;stroke-miterlimit:4;stroke-dasharray:none;stroke-opacity:1"
         d="m 20.271879,170.15625 c 0,0 18.046874,-22.6875 30.421876,-0.51563 12.374999,22.17188 28.874997,-0.51562 28.874997,-0.51562 0,0 10.828127,-18.5625 26.812538,-0.51563"
         id="path5932"
         sodipodi:nodetypes="cscc" />
      <path
         style="fill:none;stroke:#e6cdfa;stroke-width:1;stroke-linecap:butt;stroke-linejoin:miter;stroke-miterlimit:4;stroke-dasharray:none;stroke-opacity:1"
         d="m 27.15105,170.15625 c 0,0 18.046874,-22.6875 30.421876,-0.51563 12.374999,22.17188 28.874997,-0.51562 28.874997,-0.51562 0,0 10.828127,-18.5625 26.812577,-0.51563"
         id="path6014"
         sodipodi:nodetypes="cscc" />
      <path
         style="fill:none;stroke:#e6cdfa;stroke-width:1;stroke-linecap:butt;stroke-linejoin:miter;stroke-miterlimit:4;stroke-dasharray:none;stroke-opacity:1"
         d="m 34.559388,170.15625 c 0,0 18.046874,-22.6875 30.421876,-0.51563 12.374999,22.17188 28.874997,-0.51562 28.874997,-0.51562 0,0 10.828149,-18.5625 26.812619,-0.51563"
         id="path6016"
         sodipodi:nodetypes="cscc" />
      <path
         style="fill:none;stroke:#e6cdfa;stroke-width:1;stroke-linecap:butt;stroke-linejoin:miter;stroke-miterlimit:4;stroke-dasharray:none;stroke-opacity:1"
         d="m 40.909392,170.15625 c 0,0 18.046874,-22.6875 30.421876,-0.51563 12.374999,22.17188 28.874992,-0.51562 28.874992,-0.51562 0,0 10.82819,-18.5625 26.81266,-0.51563"
         id="path6018"
         sodipodi:nodetypes="cscc" />
      <path
         style="fill:none;stroke:#e6cdfa;stroke-width:1;stroke-linecap:butt;stroke-linejoin:miter;stroke-miterlimit:4;stroke-dasharray:none;stroke-opacity:1"
         d="m 47.259396,170.15625 c 0,0 18.046874,-22.6875 30.421876,-0.51563 12.374999,22.17188 28.875028,-0.51562 28.875028,-0.51562 0,0 10.82819,-18.5625 26.81266,-0.51563"
         id="path6020"
         sodipodi:nodetypes="cscc" />
    </g>
  </g>
</svg>
